<?xml version="1.0" encoding="UTF-8"?>
<svg xmlns="http://www.w3.org/2000/svg"
     viewBox="100 50 580 370"
     role="img"
     aria-label="STEP BUY STEP logo with even step spacing">

  <defs>
    <!-- TEXT GRADIENT -->
    <linearGradient id="pageTone" gradientUnits="userSpaceOnUse"
                    x1="100" y1="420" x2="640" y2="80">
      <stop offset="0%"   stop-color="#b07c2c"/>
      <stop offset="30%"  stop-color="#c99734"/>
      <stop offset="50%"  stop-color="#f7d352"/>
      <stop offset="56%"  stop-color="#fce77a"/>
      <stop offset="78%"  stop-color="#e29434"/>
      <stop offset="100%" stop-color="#c96e24"/>
    </linearGradient>

    <!-- STEP SURFACE GRADIENTS -->
    <linearGradient id="stepTread" x1="0%" y1="100%" x2="0%" y2="0%">
      <stop offset="0%"   stop-color="#CBBCA7" stop-opacity="1"/>
      <stop offset="50%"  stop-color="#CBBCA7" stop-opacity="0.18"/>
      <stop offset="100%" stop-color="#CBBCA7" stop-opacity="0"/>
    </linearGradient>

    <linearGradient id="stepFace" x1="0%" y1="0%" x2="0%" y2="100%">
      <stop offset="0%"   stop-color="#c1c49bff" stop-opacity="0.35"/>
      <stop offset="100%" stop-color="#5b5ba9ff" stop-opacity="0"/>
    </linearGradient>

    <style>
      .word {
        font-family: "Quicksand", "Nunito", "Segoe UI", system-ui, -apple-system, "Helvetica Neue", Arial, sans-serif;
        text-anchor: middle;
        fill: url(#pageTone);
      }
      .word.step { font-weight: 500; }
      .word.buy  { font-weight: 600; }
    </style>
  </defs>

  <!-- BOTTOM STEP -->
  <g>
    <polygon points="145,355 478,355 510,332 205,332" fill="url(#stepTread)" />
    <polygon points="145,355 478,355 478,385 145,385" fill="url(#stepFace)" />
    <text class="word step" x="340" y="348" font-size="100">STEP</text>
  </g>

  <!-- MIDDLE STEP (raised slightly for balanced spacing) -->
  <g>
    <polygon points="204,255 537,255 569,232 264,232" fill="url(#stepTread)" />
    <polygon points="204,255 537,255 537,295 204,295" fill="url(#stepFace)" />
    <text class="word buy" x="400" y="248" font-size="100">BUY</text>
  </g>

  <!-- TOP STEP (raised to maintain symmetry) -->
  <g>
    <polygon points="263,160 596,160 628,137 323,137" fill="url(#stepTread)" />
    <polygon points="263,160 596,160 596,200 263,200" fill="url(#stepFace)" />
    <text class="word step" x="460" y="153" font-size="90">STEP</text>
  </g>
</svg>
