<?xml version="1.0" encoding="UTF-8"?>
<svg xmlns="http://www.w3.org/2000/svg"
     viewBox="0 0 1200 300"
     width="700" height="175"
     style="shape-rendering:geometricPrecision; text-rendering:geometricPrecision; image-rendering:optimizeQuality">

  <defs>
    <!-- subtle white glow -->
    <radialGradient id="softGlow" cx="30%" cy="55%" r="45%">
      <stop offset="0%" stop-color="#FFFFFF" stop-opacity="0.45"/>
      <stop offset="40%" stop-color="#FFFFFF" stop-opacity="0.12"/>
      <stop offset="100%" stop-color="#FFFFFF" stop-opacity="0"/>
    </radialGradient>
  </defs>

  <!-- Background glow -->
  <circle cx="200" cy="150" r="110" fill="url(#softGlow)"/>

  <!-- Full stepped logo -->
  <g transform="translate(30,35) scale(0.0075)">
    <polygon fill="#FFFFFF" points="12891.25,5310.43 12891.25,5905.6 14024.34,5997.39 14024.34,5310.43"/>
    <polygon fill="#FFFFFF" points="12109.52,6562.98 14024.34,6640.93 14024.34,5997.39 12109.52,5997.39"/>
    <path fill="#FFFFFF" d="M11435.38 6640.93v601.1c-575.47,56.27 -1787.02,245.27 -1719.41,853.78 51.32,461.96 1227.88,718.56 -355.32,1346.34 1192.3,0 1833.13,136.17 2052.5,-288.23 272.93,-528.03 -364.01,-769.11 -666.74,-1050.18 -386.9,-359.28 296.12,-716.59 2556.43,-631.69 0,0 -1440.1,163.83 -1641.46,308.91 -201.32,145.12 467.87,367.28 983.09,571.54 515.23,204.29 1027.51,725.43 1092.67,1098.54h287.2v-2809.9h-2588.96z"/>
    <text x="11700" y="10650"
          font-family="Gill Sans, Gill Sans MT, Calibri, sans-serif"
          font-size="1500"
          font-weight="700"
          fill="#FFFFFF"
          text-anchor="middle">
      STEP <tspan font-style="italic">BUY</tspan> STEP
    </text>
  </g>

  <!-- Taglines -->
  <g fill="#FFFFFF"
     font-family="Gill Sans, Gill Sans MT, Calibri, Trebuchet MS, sans-serif"
     font-weight="700"
     text-rendering="optimizeLegibility"
     letter-spacing="1.8px" word-spacing="10px"
     transform="translate(480,60)">
    <text x="0"   y="50" font-size="36">Cut procurement costs.</text>
    <text x="28"  y="120" font-size="36">No jargon.</text>
    <text x="56"  y="190" font-size="36">No fuss.</text>
  </g>
</svg>
