<?xml version="1.0" encoding="UTF-8" standalone="no"?>
<!-- Created with Inkscape (http://www.inkscape.org/) -->

<svg
   version="1.1"
   id="svg1"
   width="219.05455"
   height="182.39999"
   viewBox="0 0 219.05455 182.39999"
   sodipodi:docname="sbslogo3.svg"
   inkscape:version="1.4.2 (f4327f4, 2025-05-13)"
   xmlns:inkscape="http://www.inkscape.org/namespaces/inkscape"
   xmlns:sodipodi="http://sodipodi.sourceforge.net/DTD/sodipodi-0.dtd"
   xmlns="http://www.w3.org/2000/svg"
   xmlns:svg="http://www.w3.org/2000/svg">
  <defs
     id="defs1" />
  <sodipodi:namedview
     id="namedview1"
     pagecolor="#ffffff"
     bordercolor="#000000"
     borderopacity="0.25"
     inkscape:showpageshadow="2"
     inkscape:pageopacity="0.0"
     inkscape:pagecheckerboard="0"
     inkscape:deskcolor="#d1d1d1"
     inkscape:zoom="3.518089"
     inkscape:cx="-80.725645"
     inkscape:cy="91.384841"
     inkscape:window-width="3840"
     inkscape:window-height="2054"
     inkscape:window-x="-11"
     inkscape:window-y="-11"
     inkscape:window-maximized="1"
     inkscape:current-layer="g1" />
  <g
     inkscape:groupmode="layer"
     inkscape:label="Image"
     id="g1">
    <path
       style="fill:#e2d5ca"
       d="m 85.527275,182.0919 -2.472728,-0.22696 -2.99244,-0.45367 -2.992439,-0.45367 -3.407561,-0.76242 -3.40756,-0.76242 -3.326334,-1.00635 -3.326335,-1.00635 -3.364575,-1.32794 -3.364575,-1.32794 -2.181818,-1.11301 -2.181818,-1.113 11.127273,-0.0145 11.127273,-0.0145 v -1.99166 -1.99166 l -3.536582,-0.19016 -3.536583,-0.19016 H 56.111022 44.53157 l -2.411239,-1.63475 -2.411239,-1.63475 -2.618182,-2.10254 -2.618182,-2.10254 -2.029101,-1.84405 -2.029101,-1.84406 0.0904,-1.95671 0.0904,-1.9567 -0.620667,-1.40741 -0.620666,-1.4074 -1.222446,-1.25328 -1.222446,-1.25328 -3.007697,-1.79465 -3.007697,-1.79465 -0.992303,-1.09836 -0.992303,-1.09836 v -1.09807 -1.09807 l 0.435877,-0.6223 0.435876,-0.6223 1.305605,-0.49862 1.305606,-0.49861 1.531245,0.20144 1.531246,0.20144 1.239244,0.61684 1.239244,0.61684 0.478571,0.52881 0.47857,0.52882 h 0.245822 0.245822 v -2.29145 -2.29145 l -1.493724,-0.64258 -1.493724,-0.64259 -1.677356,-0.31193 -1.677356,-0.31194 -1.675385,0.33647 -1.675386,0.33646 -1.274891,0.74714 -1.274891,0.74713 -0.848357,1.17112 -0.848356,1.17113 -0.609883,-0.97239 -0.609882,-0.9724 -2.412694,-4.82793 L 9.3972397,126.63504 9.0773892,125.71752 8.7575388,124.8 h 33.0030492 33.00305 v -1.99166 -1.99166 l -3.536582,-0.19016 -3.536583,-0.19016 H 37.373843 7.0572135 l -0.9119118,-3.12727 -0.9119117,-3.12728 -0.7108766,-3.2 -0.7108766,-3.2 -0.4590032,-3.14394 -0.4590031,-3.14394 -0.3199111,-3.983328 -0.319911,-3.983332 0.1724602,-4.945455 0.1724603,-4.945454 0.4509728,-3.572807 0.4509729,-3.572806 0.7131875,-3.50872 0.7131875,-3.50872 0.919259,-3.245746 0.919259,-3.245746 1.3088023,-3.490909 1.3088023,-3.490909 1.6928468,-3.574636 1.692846,-3.574637 1.517329,-2.679909 1.517329,-2.679908 2.177627,-3.2 2.177627,-3.2 1.819109,-2.327273 1.819108,-2.327272 2.583584,-2.76742 2.583585,-2.767419 2.54933,-2.401313 2.549331,-2.401314 2.711868,-2.15894 2.711868,-2.158941 3.280775,-2.207062 3.280775,-2.207062 2.875234,-1.627971 2.875234,-1.627972 3.700712,-1.679385 3.700711,-1.679385 2.858718,-1.0619475 2.858718,-1.0619475 3.527294,-1.0152616 3.527294,-1.0152617 3.504898,-0.7033569 3.504897,-0.7033569 3.490909,-0.45700182 3.490909,-0.45700178 5.090909,-0.1768545 5.09091,-0.1768545 4.218183,0.34901374 4.21818,0.34901373 4.21579,0.71063913 4.21578,0.7106391 3.78422,0.9982585 3.78421,0.9982586 3.47397,1.2007347 3.47398,1.2007346 3.54847,1.5985566 3.54847,1.5985566 3.15937,1.7548134 3.15938,1.754814 2.76363,1.812848 2.76364,1.812849 2.76364,2.099878 2.76363,2.099877 3.59994,3.259045 3.59994,3.259044 -0.47267,0.09406 -0.47266,0.09406 v 13.796851 13.79685 h 2.03636 2.03637 v -5.929238 -5.929238 l 3.70909,-0.150636 3.70909,-0.150635 0.63303,-0.202974 0.63303,-0.202974 0.73232,1.160071 0.73232,1.16007 1.71021,3.184357 1.7102,3.184357 1.3532,3.031848 1.35319,3.031848 1.18591,3.324493 1.18592,3.324493 0.98908,3.800261 0.98908,3.800261 0.5777,3.199999 0.5777,3.2 0.37616,2.763637 0.37615,2.763636 v 7.563636 7.563636 l -0.37421,2.763633 -0.37422,2.76364 -0.44753,2.61818 -0.44754,2.61818 -0.85635,3.49091 -0.85636,3.49091 -1.26358,3.78182 -1.26359,3.78181 -1.63689,3.7788 -1.63688,3.77879 -1.77458,3.20302 -1.77458,3.20303 -2.42341,3.63636 -2.4234,3.63637 -2.20998,2.76363 -2.20997,2.76364 -2.5347,2.7487 -2.5347,2.7487 -3.74891,3.2727 -3.74891,3.27271 -3.23291,2.31431 -3.23291,2.31432 -2.76364,1.67808 -2.76363,1.67808 -3.63101,1.84436 -3.63101,1.84437 -3.64172,1.43097 -3.64172,1.43097 -3.34545,1.01046 -3.34546,1.01045 -2.47273,0.58389 -2.47272,0.58389 -3.63637,0.60546 -3.63636,0.60547 -3.34546,0.29038 -3.34545,0.29039 -5.090909,-0.0381 -5.090909,-0.0381 z M 45.963637,149.81818 V 137.8909 h 4.654546 4.654545 v -1.89428 -1.89429 l -11.418182,0.0761 -11.418182,0.0761 -0.08661,1.81818 -0.08661,1.81818 h 4.668427 4.668427 v 11.92728 11.92727 h 2.181818 2.181818 z m 28.800001,10.03636 v -1.89091 h -5.963637 -5.963636 v -4.07273 -4.07272 h 5.672727 5.672728 v -1.89091 -1.89091 h -5.672728 -5.672727 v -4.07273 -4.07273 h 5.818182 5.818182 v -1.89566 -1.89566 l -7.781818,0.0775 -7.781819,0.0775 -0.07558,13.74546 -0.07558,13.74545 h 8.002848 8.002849 z m 8.145455,-4.07273 v -5.96363 h 2.894772 2.894772 l 1.473599,-0.31603 1.473598,-0.31603 1.366395,-0.92034 1.366396,-0.92033 0.810688,-1.56049 0.810689,-1.56049 v -2.09644 -2.09643 l -0.8,-1.57744 -0.8,-1.57744 -1.248596,-0.93953 -1.248597,-0.93954 -1.224131,-0.35477 -1.224131,-0.35477 -5.381818,-0.0168 -5.381818,-0.0168 -0.07558,13.74546 -0.07558,13.74545 h 2.184667 2.184667 z m 0,-13.63973 v -4.25118 l 2.545454,0.002 2.545455,0.002 1.034719,0.28744 1.034718,0.28745 0.82486,0.86097 0.82486,0.86097 0.120167,1.39541 0.120168,1.39542 -0.5252,1.00829 -0.525201,1.00828 -1.016019,0.58698 -1.01602,0.58698 -2.98398,0.11046 -2.983981,0.11046 z M 102.4,117.86501 v -1.98954 l -8.338236,-0.19228 -8.338237,-0.19228 H 65.843582 45.963637 V 93.381815 71.272725 H 74.18182 102.4 v -2.030082 -2.030082 l -5.599998,-0.08567 -5.6,-0.08567 15.636368,-0.06606 15.63636,-0.06606 V 64.916946 62.92479 l -3.0998,-0.189663 -3.0998,-0.189663 H 100.60929 84.945456 v -22.10909 -22.10909 h 18.763634 18.76364 v -1.992155 -1.992155 l -3.0998,-0.189663 -3.0998,-0.189663 H 98.427475 80.58182 V 40.436362 66.909089 H 61.09091 41.600001 V 93.381815 119.85454 H 72.000002 102.4 Z m -6.399998,-10.19328 1.6,-0.62554 1.363363,-1.00344 1.363365,-1.00344 0.7306,-1.24693 0.7306,-1.24693 0.45149,-1.73385 0.45149,-1.733843 v -9.102516 -9.102516 h -2.01856 -2.018561 l -0.09053,9.672727 -0.09053,9.672728 -0.668117,1.25138 -0.668118,1.25137 -1.313536,0.83302 -1.313536,0.83302 -1.472608,0.35328 -1.472607,0.35327 -1.736468,-0.1815 -1.736468,-0.18149 -1.209271,-0.53493 -1.209271,-0.53492 -0.929585,-1.05876 -0.929585,-1.05875 -0.305156,-1.09886 -0.305156,-1.098859 -0.0016,-9.236363 -0.0016,-9.236363 h -2.050396 -2.050397 l 0.08676,10.10909 0.08676,10.109095 0.816335,1.66238 0.816334,1.66238 1.365484,1.21234 1.365483,1.21233 1.018182,0.43986 1.018182,0.43985 1.309091,0.3862 1.309091,0.38619 3.054546,-0.0976 3.054545,-0.0976 z m -26.364352,0.10752 1.68516,-0.43893 1.294452,-0.89061 1.294452,-0.8906 0.778971,-1.17711 0.77897,-1.1771 0.11905,-1.86964 0.119049,-1.869637 -0.488055,-1.277954 -0.488055,-1.277955 -1.178766,-1.064944 -1.178767,-1.064945 -0.913327,-0.365146 -0.913328,-0.365147 -0.553544,-0.196332 -0.553544,-0.196332 1.311621,-0.831805 1.311621,-0.831806 0.623741,-1.288477 0.623741,-1.288477 v -1.596489 -1.596489 l -0.736904,-1.478775 -0.736905,-1.478775 -1.138874,-0.78924 -1.138874,-0.78924 -1.10604,-0.394517 -1.106039,-0.394516 -5.163636,-0.01277 -5.163637,-0.01277 v 13.672726 13.672732 h 5.466153 5.466153 z m -8.617467,-3.21172 -0.218182,-0.22814 v -4.21202 -4.21202 l 3.583208,0.154747 3.583208,0.154748 1.212538,0.61859 1.212537,0.618591 0.513346,0.783464 0.513345,0.783464 v 1.373276 1.37328 l -0.612227,0.82134 -0.612227,0.82133 -0.92236,0.54014 -0.922361,0.54014 -3.556321,0.1486 -3.556322,0.1486 z M 60.800001,88.436361 v -4.072727 l 2.545455,0.0064 2.545455,0.0064 1.247313,0.566109 1.247313,0.566108 0.450752,1.078802 0.450752,1.078802 -0.187814,1.252435 -0.187814,1.252436 -0.839457,0.839457 -0.839456,0.839456 -1.308706,0.329536 -1.308706,0.329536 h -1.907543 -1.907544 z m 58.472729,12.559199 v -7.222618 l 4.94545,-6.303861 4.94546,-6.303861 v -0.158013 -0.158013 l -2.3903,0.08449 -2.39029,0.08449 -3.43268,4.363636 -3.43268,4.363637 -0.25503,0.08661 -0.25503,0.08661 -3.41556,-4.401619 -3.41555,-4.401619 -0.35185,-0.135016 -0.35184,-0.135015 -2.11837,0.08639 -2.11837,0.08639 4.98195,6.372115 4.98196,6.372114 v 7.227883 7.22789 h 2.03637 2.03636 z m -12.86786,-46.441249 1.52492,-0.82997 0.76339,-1.000856 0.76339,-1.000856 0.39899,-1.325732 0.39899,-1.325731 v -1.06558 -1.06558 l -0.46314,-1.359226 -0.46313,-1.359226 -1.24958,-1.383505 -1.24957,-1.383505 -3.23072,-1.995648 -3.23071,-1.995647 -0.846899,-0.964562 -0.846896,-0.964562 -0.204087,-0.929199 -0.204086,-0.929198 0.560542,-0.765137 0.560541,-0.765138 0.997505,-0.527413 0.9975,-0.527413 1.78695,0.127771 1.78695,0.127771 1.3432,0.670828 1.34321,0.670827 0.47857,0.528815 0.47857,0.528814 h 0.24582 0.24582 v -2.287545 -2.287545 l -1.74713,-0.784066 -1.74714,-0.784067 -1.99673,-0.1674 -1.99674,-0.167399 -1.628716,0.512294 -1.628715,0.512293 -1.182902,1.012521 -1.182903,1.01252 -0.536923,1.059652 -0.536923,1.059652 -0.207309,1.24479 -0.20731,1.24479 0.347183,1.447223 0.347183,1.447222 1.300703,1.446695 1.300703,1.446694 3.305159,2.050779 3.30515,2.050779 0.7355,0.874093 0.7355,0.874093 0.29601,1.072034 0.296,1.072035 -0.50301,1.009249 -0.503,1.009249 -0.79665,0.582159 -0.79664,0.58216 -1.8721,-0.01761 -1.87209,-0.01761 -1.331268,-0.644455 -1.331266,-0.644455 -1.309085,-1.272284 -1.309085,-1.272285 v 2.583603 2.583603 l 1.043308,0.6448 1.043308,0.6448 1.647601,0.543951 1.647597,0.543951 2.33088,-0.09107 2.33088,-0.09106 z M 125.38182,43.345453 V 31.418181 h 4.8 4.8 V 29.527272 27.636363 H 123.49091 112 v 1.890909 1.890909 h 4.65455 4.65454 v 11.927272 11.927272 h 2.03637 2.03636 z m 29.09091,10.036363 v -1.890909 h -5.96364 -5.96363 v -4.066445 -4.066446 l 5.6,-0.07901 5.6,-0.07901 0.0866,-1.818182 0.0866,-1.818182 h -5.68661 -5.68661 v -4.072727 -4.072727 h 5.81818 5.81818 V 29.527269 27.63636 h -7.85454 -7.85455 v 13.818181 13.818181 h 8 8 z M 15.98434,155.41818 l -1.002521,-1.09091 1.090909,1.00252 1.090909,1.00252 v 0.0884 0.0884 h -0.08839 -0.08839 z m -1.12501,-14.20606 0.02297,-0.55758 0.152791,0.38182 0.152791,0.38182 -0.175757,0.17575 -0.175758,0.17576 z M 162.32728,35.627431 v -4.310669 l 0.75557,0.705255 0.75558,0.705255 2.48922,3.276418 2.48921,3.276419 -0.17218,0.172178 -0.17217,0.172178 -3.07262,0.156818 -3.07261,0.156818 z m 9.08567,-0.136523 v -1.018182 l 0.13304,0.509091 0.13304,0.509091 -0.13304,0.509091 -0.13304,0.509091 z m -3.32204,-7.76236 0.38182,-0.152791 0.17576,0.175757 0.17576,0.175758 -0.55758,-0.02297 -0.55758,-0.02297 z"
       id="path8" />
    <path
       style="fill:#a39ea3"
       d="m 49.163637,170.47681 v -2.03228 l -9.236363,-0.081 -9.236364,-0.0811 18.499782,-0.0685 18.499781,-0.0685 3.536583,0.19016 3.536582,0.19016 v 1.99166 1.99166 h -12.8 -12.800001 z m -7.430649,-20.65863 v -12.07273 l 0.08486,6.03636 0.08486,6.03637 -0.08486,6.03636 -0.08486,6.03636 z m 4.072727,0 v -12.07273 l 0.08486,6.03636 0.08486,6.03637 -0.08486,6.03636 -0.08486,6.03636 z m 32.880831,-1.74546 0.0044,-13.81818 4.8,-0.0115 4.8,-0.0115 -4.724429,0.0914 -4.724429,0.0914 -0.07994,13.73826 -0.07994,13.73826 z m 4.054773,7.70909 4.32e-4,-6.10909 0.09367,3.14309 0.09367,3.14308 -0.0941,2.96601 -0.0941,2.966 z m -16.907324,2.25549 3.143084,-0.0937 2.966007,0.0941 2.966007,0.0941 -6.109092,-4.4e-4 -6.109091,-4.3e-4 z m 27.984189,-10.5464 0.526538,-0.58181 h 0.145455 0.145454 l -0.526538,0.58181 -0.526538,0.58182 H 93.4371 93.291646 Z m -11.083654,-5.38181 7.41e-4,-4.36364 0.09939,2.26784 0.09939,2.26784 -0.100128,2.0958 -0.100128,2.09579 z M 19.744712,143.2 l -0.399257,-0.5091 0.509091,0.39926 0.509091,0.39926 v 0.10983 0.10984 h -0.109834 -0.109835 z m -1.103563,-2.5697 0.02297,-0.55758 0.152791,0.38182 0.152791,0.38182 -0.175757,0.17576 -0.175758,0.17575 z m 72.085382,-1.50303 -0.399256,-0.50909 0.509091,0.39925 0.509091,0.39926 v 0.10983 0.10984 h -0.109835 -0.109834 z m -52.544712,-4.94509 5.745455,-0.0854 5.745454,0.0854 5.745455,0.0854 H 43.927274 32.436364 Z m 24.744666,2.3e-4 4.017393,-0.09 3.837152,0.0902 3.837153,0.0902 -7.854545,-2.8e-4 -7.854546,-2.8e-4 z M 22.036364,133.91642 22.4,133.76969 l 0.363637,0.14673 0.363636,0.14673 H 22.4 21.672728 Z m 1.454546,0 0.363636,-0.14673 0.363636,0.14673 0.363637,0.14673 h -0.727273 -0.727273 z m 25.672727,-11.14743 v -2.031 l -6.763636,-0.0837 -6.763637,-0.0837 16.027055,-0.0671 16.027054,-0.0671 3.536583,0.19016 3.536582,0.19016 v 1.99166 1.99166 h -12.8 -12.800001 z M 114.61818,64.882253 v -2.026836 l -3.27272,-0.0928 -3.27273,-0.0928 4.1002,-0.06218 4.1002,-0.06218 3.0998,0.189663 3.0998,0.189663 v 1.992156 1.992155 h -3.92727 -3.92728 z m -6.98181,-11.173907 v -0.109835 l 0.50909,-0.399256 0.50909,-0.399257 -0.39926,0.509091 -0.39926,0.509091 h -0.10983 -0.10983 z m 40.34991,-10.577378 5.58628,-0.08889 0.11099,-1.811948 0.11099,-1.811949 -0.0245,1.89091 -0.0245,1.890909 -5.67273,0.0099 -5.67273,0.0099 z m 19.23191,-3.475148 0.38181,-0.152791 0.17576,0.175758 0.17576,0.175757 -0.55758,-0.02297 -0.55757,-0.02297 z m -67.764386,-2.928549 -0.399256,-0.50909 0.509091,0.399256 0.509091,0.399257 v 0.109834 0.109834 h -0.109835 -0.109834 z m 70.981816,-4.072727 -0.39925,-0.509091 0.50909,0.399257 0.50909,0.399257 v 0.109834 0.109834 h -0.10984 -0.10983 z m 3.06402,-2.472727 -0.55418,-0.654545 0.65454,0.554178 0.65455,0.554178 v 0.100367 0.100368 h -0.10037 -0.10037 z m -72.336,-2.738118 0.36363,-0.14673 0.36364,0.14673 0.36364,0.146731 H 101.52727 100.8 Z m 2.63636,-0.0061 0.38182,-0.152791 0.17576,0.175757 0.17576,0.175758 -0.55758,-0.02297 -0.55758,-0.02297 z M 114.61818,16.300436 V 14.2736 l -3.27272,-0.0928 -3.27273,-0.0928 4.1002,-0.06218 4.1002,-0.06218 3.0998,0.189663 3.0998,0.189663 v 1.992155 1.992155 h -3.92727 -3.92728 z"
       id="path7" />
    <path
       style="fill:#b88b72"
       d="m 88.514629,108.30749 0.514628,-0.13411 0.3581,0.14489 0.358099,0.14488 -0.872727,-0.0108 -0.872727,-0.0108 z m 3.921737,0.009 0.363636,-0.14673 0.363636,0.14673 0.363637,0.14673 h -0.727273 -0.727273 z m -24.709092,-0.29697 0.381818,-0.15279 0.175758,0.17576 0.175758,0.17576 -0.557576,-0.023 -0.557576,-0.023 z m 5.872728,-2.56491 0.683237,-0.72727 h 0.145454 0.145455 l -0.683237,0.72727 -0.683238,0.72727 h -0.145454 -0.145455 z m 26.181818,-0.29091 0.68324,-0.72727 h 0.14545 0.14546 l -0.68324,0.72727 -0.683238,0.72728 h -0.145454 -0.145455 z m -11.109091,-0.34418 0.381818,-0.15279 0.175758,0.17576 0.175758,0.17576 -0.557576,-0.023 -0.557576,-0.023 z m -21.836364,-0.28484 0.363636,-0.14673 0.363637,0.14673 0.363636,0.14673 h -0.727273 -0.727272 z m 2.981818,-0.7899 v -0.10984 l 0.509091,-0.39925 0.509091,-0.39926 -0.399256,0.50909 -0.399257,0.50909 h -0.109834 -0.109835 z m 14.814347,-0.98108 -0.705255,-0.8 0.8,0.70526 0.8,0.70525 v 0.0948 0.0947 h -0.09475 -0.09475 z m -5.482289,-2.860603 0.02297,-0.557576 0.152792,0.381818 0.152791,0.381821 -0.175758,0.17576 -0.175758,0.17575 z m 19.2,-0.290909 0.02297,-0.557576 0.152791,0.381818 0.152791,0.381818 -0.175758,0.175758 -0.175757,0.175754 z m 4.106469,-1.139394 0.0108,-0.872727 0.13411,0.514627 0.13411,0.514628 -0.14489,0.358099 -0.14488,0.3581 z m -19.418266,-8.727272 -2.24e-4,-9.018182 0.08837,4.418209 0.08837,4.418208 -0.08815,4.599973 -0.08815,4.599973 z m -16.183897,6.34673 0.381818,-0.152791 0.175758,0.175757 0.175757,0.175758 -0.557576,-0.02297 -0.557575,-0.02297 z m 49.947513,-6.197944 -0.17773,-0.287577 0.45147,0.173247 0.45148,0.173246 v 0.114331 0.11433 h -0.27375 -0.27374 z m -43.76091,-0.754847 0.02297,-0.557576 0.152791,0.381818 0.152792,0.381819 -0.175758,0.175757 -0.175758,0.175758 z m 45.94067,-1.394683 v -0.109834 l 0.50909,-0.399257 0.50909,-0.399256 -0.39925,0.509091 -0.39926,0.509091 h -0.10983 -0.10984 z m -10.21892,-2.144711 -0.39926,-0.509091 0.50909,0.399257 0.50909,0.399257 v 0.109834 0.109834 h -0.10983 -0.10984 z m 13.41892,-1.928016 v -0.109834 l 0.50909,-0.399257 0.50909,-0.399256 -0.39925,0.50909 -0.39926,0.509091 h -0.10983 -0.10984 z M 96.000002,64.879288 v -2.029801 l -5.309091,-0.08627 -5.309091,-0.08627 9.77172,-0.06574 9.77172,-0.06574 4.84646,0.19114 4.84646,0.191139 v 1.990679 1.990679 h -9.30909 -9.309088 z m 0,-48.581817 V 14.26767 l -5.309091,-0.08627 -5.309091,-0.08627 9.77172,-0.06574 9.77172,-0.06574 4.84646,0.191139 4.84646,0.19114 v 1.990678 1.990679 h -9.30909 -9.309088 z"
       id="path6" />
    <path
       style="fill:#5d6a8b"
       d="m 20.654546,170.47272 v -2.03636 l -8.218182,-0.0638 -8.2181821,-0.0638 4.0727274,-0.1036 4.0727277,-0.1036 18.4,0.20235 18.4,0.20235 v 2.00142 2.00143 H 34.909092 20.654546 Z m 38.243394,-22.54545 -1.07e-4,-13.67273 0.08367,6.74361 0.08367,6.7436 -0.08356,6.92912 -0.08356,6.92912 z m -30.970667,12.2538 v -0.10983 l 0.509091,-0.39926 0.509091,-0.39926 -0.399256,0.50909 -0.399257,0.50909 h -0.109834 -0.109835 z m 2.35024,-4.4235 0.02297,-0.55758 0.152791,0.38182 0.152791,0.38182 -0.175757,0.17576 -0.175758,0.17576 z m -5.141516,-3.97576 -0.554178,-0.65454 0.654545,0.55418 0.654546,0.55417 v 0.10037 0.10037 h -0.100368 -0.100367 z m 43.154914,-2.17817 5.6,-0.0889 v -1.58743 -1.58744 l -5.527494,-0.0887 -5.527494,-0.0887 5.600221,0.01 5.600221,0.01 v 1.74546 1.74545 l -5.672727,0.01 -5.672728,0.01 z m 20.090909,0.0158 0.381818,-0.15279 0.175758,0.17576 0.175757,0.17576 -0.557575,-0.023 -0.557576,-0.023 z M 32.381054,136 l 0.003,-1.74546 0.117719,0.95067 0.117718,0.95066 -0.120687,0.79479 -0.120687,0.79479 z m 61.40949,0.65454 L 93.236366,136 l 0.654545,0.55417 0.654546,0.55418 v 0.10037 0.10037 H 94.445089 94.344722 Z M 20.654546,122.76731 v -2.03269 l -10.4,-0.0802 -10.40000055,-0.0802 14.57064955,-0.0689 14.570649,-0.0689 10.083897,0.19257 10.083896,0.19256 V 122.81074 124.8 H 34.909092 20.654546 Z m 79.927274,-67.396339 0.36364,-0.14673 0.36363,0.14673 0.36364,0.14673 h -0.72727 -0.72728 z m 2.63636,-0.0061 0.38182,-0.152791 0.17576,0.175758 0.17576,0.175758 -0.55758,-0.02297 -0.55757,-0.02297 z m 39.4,-0.309658 4,-0.08985 4.00001,0.08985 4,0.08985 h -8.00001 -8 z m -21.23979,-11.77532 -0.0693,-11.847339 -4.72727,-0.08766 -4.72727,-0.08766 4.7364,-0.065 4.7364,-0.065 0.13973,0.36412 0.13973,0.364121 -0.0796,11.635879 -0.0796,11.635879 z m 37.01725,-1.898071 0.004,-13.600044 4.65455,-0.01182 4.65454,-0.01182 -4.57894,0.09192 -4.57895,0.09192 -0.08,13.519944 -0.08,13.519944 z m -16.01361,10.021642 -0.14518,-0.378313 0.0908,-3.912596 0.0908,-3.912595 0.0635,4.139552 0.0635,4.139552 6.03636,0.08486 6.03637,0.08486 -6.0455,0.06649 -6.04549,0.06649 z m -32.3509,-3.403505 v -1.018181 l 0.13304,0.509091 0.13304,0.50909 -0.13304,0.509091 -0.13304,0.509091 z m -5.34096,-2.836363 -0.39926,-0.509091 0.50909,0.399257 0.50909,0.399256 v 0.109834 0.109835 h -0.10983 -0.10984 z m 62.81892,-2.016906 0.38182,-0.152791 0.17576,0.175758 0.17576,0.175757 -0.55758,-0.02297 -0.55757,-0.02297 z m -25.12107,-7.801276 0.012,-4.072727 5.74546,-0.07888 5.74545,-0.07888 v -1.58902 -1.58902 l -7.63636,-0.08509 -7.63637,-0.08509 7.7091,0.0075 7.70909,0.0075 v 1.745455 1.745454 l -5.73751,0.07885 -5.7375,0.07885 -0.0927,3.993877 -0.0927,3.993876 z m -47.819597,-0.60606 0.02297,-0.557576 0.152791,0.381818 0.152791,0.381818 -0.175758,0.175758 -0.175757,0.175758 z m 33.227677,-3.538022 2.55974,-0.09717 2.38572,0.09778 2.38572,0.09777 -4.94546,-6.08e-4 -4.94545,-6.08e-4 z m 35.62209,0.0038 1.23636,-0.111358 1.23636,0.111358 1.23637,0.111357 h -2.47273 -2.47273 z m -45.83756,-3.495658 5.72608,-0.08533 5.91028,0.08518 5.91029,0.08518 -11.63637,1.43e-4 -11.63636,1.43e-4 z m -15.10236,-0.274753 0.51462,-0.134105 0.3581,0.144885 0.3581,0.144885 -0.87272,-0.01078 -0.87273,-0.01078 z"
       id="path5" />
    <path
       style="fill:#ad4d1c"
       d="m 88.340086,108.20471 -1.405371,-0.23595 -1.427793,-0.51342 -1.427792,-0.51343 -1.385019,-1.04375 -1.385018,-1.04375 -1.018182,-2.02721 -1.018182,-2.0272 -0.09314,-9.963639 -0.09314,-9.963636 h 1.890181 1.890181 l 0.09387,9.527272 0.09386,9.527272 0.629287,1.361701 0.629286,1.36169 1.17497,0.85114 1.17497,0.85115 1.321746,0.37006 1.321746,0.37007 2.255816,-0.13471 2.255816,-0.13471 1.163636,-0.60337 1.163637,-0.60337 0.784568,-0.82664 0.784567,-0.82665 0.451796,-1.08156 0.451796,-1.081568 v -9.463889 -9.463888 h 2.036362 2.03636 l -0.009,8.072727 -0.009,8.072727 -0.274,2.109452 -0.27399,2.109449 -0.62271,1.44751 -0.6227,1.44751 -1.297907,1.19637 -1.297915,1.19638 -1.505498,0.68594 -1.505497,0.68594 -1.890909,0.30398 -1.890909,0.30398 -0.872727,-0.032 -0.872728,-0.032 z M 57.018183,94.547574 v -13.73034 l 5.309091,0.106896 5.309091,0.106896 1.450922,0.662332 1.450921,0.662332 0.68648,0.640335 0.68648,0.640336 0.616834,1.163636 0.616833,1.163636 -0.0063,1.911878 -0.0063,1.911878 -0.57941,0.997213 -0.579409,0.997213 -1.358758,1.010425 -1.358757,1.010425 1.176195,0.347289 1.176195,0.347289 1.159721,0.803687 1.159721,0.803687 0.719057,1.226977 0.719056,1.226976 0.171293,1.44631 0.171294,1.4463 -0.492946,1.48412 -0.492947,1.48413 -1.462241,1.31468 -1.462242,1.31468 -1.499009,0.48268 -1.49901,0.48268 -5.890909,0.13188 -5.890909,0.13188 z m 12.408279,9.524676 0.917369,-0.49451 0.609903,-0.98685 0.609904,-0.98684 v -1.38171 -1.381702 l -1.097468,-1.097467 -1.097468,-1.097468 -1.157078,-0.321231 -1.157077,-0.32123 -3.127273,-0.0016 -3.127273,-0.0016 v 4.392178 4.39217 l 3.854546,-0.1088 3.854545,-0.1088 z m -2.114247,-12.241903 0.78829,-0.516508 0.566843,-0.929648 0.566842,-0.929649 0.0011,-1.342586 0.0011,-1.342587 -0.607504,-0.772316 -0.607504,-0.772317 -0.832595,-0.430551 -0.832595,-0.430551 h -2.778083 -2.778083 v 4.106562 4.106562 l 2.861962,-0.114952 2.861961,-0.114952 z M 115.40625,108.03654 115.2,107.8303 l -0.007,-7.15152 -0.007,-7.15151 -3.66133,-4.654546 -3.66134,-4.654545 -1.29461,-1.672727 -1.2946,-1.672727 h 2.29673 2.29674 l 3.6041,4.654545 3.6041,4.654545 0.15253,-0.0097 0.15253,-0.0097 3.61849,-4.644825 3.6185,-4.644825 h 2.28891 2.28891 l -0.38013,0.530895 -0.38013,0.530895 -4.50909,5.746336 -4.5091,5.746337 -0.14545,7.322772 -0.14545,7.32276 -1.7574,0.085 -1.75739,0.085 z M 80.58182,40.598985 V 14.288882 l 0.244184,-0.150914 0.244183,-0.150914 7.464908,0.179932 7.464907,0.179932 v 1.990177 1.990177 h -5.527273 -5.527273 v 22.077966 22.077966 l 0.460157,0.176579 0.460156,0.176579 h 5.067117 5.067116 v 2.036363 2.036364 H 88.290911 80.58182 Z"
       id="path4" />
    <path
       style="fill:#0c2965"
       d="M 0,146.61818 V 120.72727 H 10.327273 20.654546 V 122.76363 124.8 H 12.509091 4.3636365 v 21.81818 21.81818 h 8.1454545 8.145455 v 2.03636 2.03637 H 10.327273 0 Z m 21.472728,15.21945 0.381818,-0.15279 0.175758,0.17576 0.175757,0.17576 -0.557576,-0.023 -0.557575,-0.023 z m 1.745454,0 0.381819,-0.15279 0.175757,0.17576 0.175758,0.17576 -0.557576,-0.023 -0.557576,-0.023 z m 39.69091,-0.30965 4,-0.0899 4,0.0899 4.000001,0.0898 h -8.000001 -8 z m -28.058915,-23.85373 2.413813,-0.0982 2.240733,0.0989 2.240732,0.0989 -4.654545,-6.7e-4 -4.654546,-6.7e-4 z m 13.368006,2.2e-4 2.4,-0.098 2.4,0.098 2.4,0.098 h -4.8 -4.8 z m 17.47002,-7.2e-4 2.997293,-0.0945 2.820889,0.0949 2.820889,0.0949 -5.818182,-4.7e-4 -5.818182,-4.7e-4 z m 18.311799,0.004 1.236363,-0.11136 1.236364,0.11136 1.236364,0.11136 h -2.472728 -2.472727 z m -61.521738,-0.2795 0.514628,-0.13411 0.3581,0.14489 0.358099,0.14488 -0.872727,-0.0108 -0.872727,-0.0108 z m 79.418186,-82.036363 0.51463,-0.134105 0.3581,0.144885 0.35809,0.144884 -0.87272,-0.01078 -0.87273,-0.01078 z m 20.49706,-0.29927 0.93897,-0.116846 1.0974,0.1145 1.0974,0.114499 -2.03637,0.0023 -2.03636,0.0023 z m 36.94546,0 0.93897,-0.116846 1.09739,0.1145 1.0974,0.114499 -2.03636,0.0023 -2.03637,0.0023 z m -20.73194,-13.608223 -1e-4,-13.672727 0.0837,6.743604 0.0837,6.743605 -0.0836,6.929122 -0.0836,6.929123 z m 27.58033,1.689312 0.51463,-0.134106 0.3581,0.144885 0.3581,0.144885 -0.87273,-0.01078 -0.87273,-0.01078 z m -58.5881,-0.598403 -0.39926,-0.509091 0.50909,0.399257 0.50909,0.399256 v 0.109835 0.109834 h -0.10983 -0.10983 z m 65.49165,-1.346198 v -0.109834 l 0.50909,-0.399257 0.50909,-0.399256 -0.39925,0.509091 -0.39926,0.509091 h -0.10983 -0.10984 z m -27.85454,-1.561584 2.83636,-0.0951 2.83636,0.0951 2.83637,0.09511 H 148.07273 142.4 Z m 21.98182,-8.418214 0.38181,-0.152791 0.17576,0.175757 0.17576,0.175758 -0.55758,-0.02297 -0.55757,-0.02297 z"
       id="path3" />
    <path
       style="fill:#010101"
       d="m 20.567874,161.71785 -1.686673,-0.24587 -1.804237,-0.95417 -1.804236,-0.95418 -0.08497,-2.25454 -0.08496,-2.25455 h 0.24608 0.246079 l 1.002521,1.05381 1.002521,1.0538 1.454546,0.68881 1.454545,0.68881 1.70149,0.003 1.70149,0.003 0.972383,-0.46143 0.972384,-0.46142 0.405585,-0.62949 0.405586,-0.62948 0.167875,-0.66159 0.167875,-0.66158 -0.281385,-1.01909 -0.281385,-1.0191 -0.826735,-0.9375 -0.826736,-0.9375 -2.866486,-1.74546 -2.866486,-1.74545 -1.617611,-1.6 -1.617611,-1.6 -0.380722,-1.37071 -0.380722,-1.37071 0.207858,-1.3861 0.207858,-1.3861 0.545669,-1.0696 0.545668,-1.06959 1.099352,-0.91086 1.099352,-0.91086 1.585544,-0.46396 1.585543,-0.46395 2.088546,0.15796 2.088546,0.15795 1.635002,0.77348 1.635001,0.77348 v 2.2114 2.21141 l -0.654546,-0.60189 -0.654545,-0.60189 -1.139774,-0.60198 -1.139774,-0.60197 -1.556239,-0.32308 -1.556238,-0.32307 -1.445755,0.4802 -1.445755,0.4802 -0.585505,0.74435 -0.585506,0.74435 v 0.85262 0.85262 l 0.327262,0.63542 0.327262,0.63542 0.618193,0.67919 0.618192,0.67918 3.299112,2.04781 3.299111,2.0478 1.028823,1.02883 1.028824,1.02882 0.577222,1.30491 0.577222,1.3049 -0.01031,1.78721 -0.01031,1.7872 -0.491972,1.22956 -0.491972,1.22956 -1.272678,1.12025 -1.272678,1.12026 -1.239287,0.3146 -1.239287,0.3146 -1.018182,0.12407 -1.018182,0.12407 z m 21.253536,-11.9724 -0.07596,-12 -4.581818,-0.0801 -4.581818,-0.0801 V 135.99261 134.4 h 11.345455 11.345454 v 1.59279 1.59279 l -4.727272,0.0799 -4.727273,0.0799 -0.07596,12 -0.07595,12 h -1.884455 -1.884455 z m 37.014955,-1.67273 V 134.4 h 4.999097 4.999097 l 1.69562,0.47576 1.695619,0.47577 1.271794,1.11948 1.271795,1.11947 0.456032,1.13974 0.456032,1.13974 0.191478,1.44343 0.191479,1.44344 -0.483162,1.66201 -0.483161,1.66202 -1.267576,1.26758 -1.267577,1.26757 -1.554192,0.46784 -1.554193,0.46783 -3.418182,0.17766 -3.418181,0.17766 v 5.91922 5.91923 h -1.89091 -1.890909 z m 10.972199,-2.23126 1.023764,-0.48581 0.546386,-0.89601 0.546386,-0.89601 0.0011,-1.63349 0.0011,-1.6335 -0.607505,-0.77232 -0.607504,-0.77231 -0.919768,-0.47637 -0.919769,-0.47637 -3.054545,-0.0269 -3.054546,-0.0269 -0.0805,4.29091 -0.0805,4.29091 h 3.091085 3.091085 z m -30.754017,2.08581 V 134.4 h 7.709091 7.709091 v 1.6 1.6 h -5.818182 -5.818182 v 4.36363 4.36364 h 5.527273 5.527273 v 1.6 1.6 h -5.527273 -5.527273 v 4.36363 4.36364 h 5.963636 5.963637 v 1.6 1.6 H 66.909092 59.054547 Z M 98.763638,54.9543 97.890911,54.688347 96.436366,53.88943 94.98182,53.090513 94.8966,50.645395 l -0.08523,-2.445119 1.103407,1.084815 1.103406,1.084815 1.247943,0.740383 1.247942,0.740384 1.870162,0.150119 1.87016,0.150118 0.88779,-0.367734 0.88778,-0.367735 0.72139,-0.857314 0.72138,-0.857314 v -1.243124 -1.243123 l -0.85011,-1.173538 -0.8501,-1.173538 -3.29535,-2.051841 -3.295351,-2.051842 -1.13546,-1.109177 -1.13546,-1.109177 -0.530878,-1.163636 -0.530878,-1.163636 -0.0064,-1.536617 -0.0064,-1.536616 0.451107,-1.081565 0.451107,-1.081566 0.930711,-0.970946 0.930711,-0.970947 1.163636,-0.629053 1.163637,-0.629054 h 2.909098 2.90909 l 1.67272,0.821396 1.67273,0.821396 v 2.014968 2.014967 h -0.11622 -0.11622 l -1.48173,-0.997132 -1.48174,-0.997132 -1.60787,-0.333793 -1.60787,-0.333793 -0.93963,0.202325 -0.93963,0.202326 -0.78234,0.399665 -0.782342,0.399666 -0.454023,0.648209 -0.454023,0.648208 v 1.088785 1.088785 l 0.900912,1.026082 0.900916,1.026082 3.24454,2.017768 3.24454,2.017767 1.075,1.111727 1.07499,1.111728 0.59134,1.309091 0.59135,1.30909 0.004,1.745455 0.004,1.745454 -0.69312,1.488591 -0.69313,1.48859 -1.04889,0.800032 -1.0489,0.800032 -1.0915,0.389518 -1.0915,0.389518 -2.32727,-0.01347 -2.327277,-0.01347 z M 121.6,43.054544 V 31.127272 h -4.8 -4.8 v -1.6 -1.6 h 11.49091 11.49091 v 1.6 1.6 h -4.8 -4.8 V 43.054544 54.981816 H 123.49091 121.6 Z m 17.16364,-1.6 V 27.927272 h 7.56364 7.56363 v 1.59385 1.59385 l -5.74545,0.07888 -5.74546,0.07888 v 4.218182 4.218182 l 5.6,0.07901 5.6,0.07901 v 1.593719 1.593718 h -5.6805 -5.68051 l 0.0805,4.290909 0.0805,4.290909 6.03637,0.07863 6.03636,0.07863 v 1.594097 1.594098 h -7.85455 -7.85454 z m 19.78182,0 V 27.927272 h 5.2262 5.22619 l 1.39199,0.466271 1.39198,0.466271 0.95644,0.72055 0.95644,0.720549 0.6789,1.075435 0.67889,1.075434 0.21257,0.967852 0.21258,0.967853 -0.0188,1.57602 -0.0188,1.576021 -0.54611,1.230235 -0.54612,1.230236 -1.19821,1.079286 -1.19822,1.079286 -1.5393,0.432568 -1.5393,0.432567 -3.27273,0.1983 -3.27272,0.1983 v 5.780755 5.780755 h -1.89091 -1.89091 z m 10.5548,-1.998872 0.93611,-0.398871 0.72727,-0.788202 0.72727,-0.788201 v -2.03679 -2.03679 l -0.92995,-0.830909 -0.92994,-0.830909 -1.10642,-0.307242 -1.10641,-0.307242 -2.54546,-0.0016 -2.54545,-0.0016 v 4.363636 4.363636 h 2.91843 2.91844 z"
       id="path2" />
  </g>
</svg>
