<?xml version="1.0" encoding="UTF-8"?>
<svg xmlns="http://www.w3.org/2000/svg"
     viewBox="100 50 580 370"
     role="img"
     aria-label="STEP BUY STEP logo with unified natural tones and vivid text">

  <defs>
    <!-- TEXT COLORS -->
    <!-- STEP: slightly duller amber -->
    <linearGradient id="warmTextStep" x1="0%" y1="0%" x2="0%" y2="100%">
      <stop offset="0%" stop-color="#b89447f0"/>
      <stop offset="100%" stop-color="#b1873cf0"/>
    </linearGradient>

    <!-- BUY: richer, more saturated amber -->
    <linearGradient id="warmTextBuy" x1="0%" y1="0%" x2="0%" y2="100%">
      <stop offset="0%" stop-color="#c29e4ff3"/>
      <stop offset="100%" stop-color="#ce9b44ff"/>
    </linearGradient>

    <!-- TREAD GRADIENT -->
    <linearGradient id="stepTread" x1="0%" y1="100%" x2="0%" y2="0%">
      <stop offset="0%"   stop-color="#CBBCA7" stop-opacity="1"/>
      <stop offset="50%"  stop-color="#CBBCA7" stop-opacity="0.25"/>
      <stop offset="100%" stop-color="#CBBCA7" stop-opacity="0"/>
    </linearGradient>

    <!-- FACE GRADIENT -->
    <linearGradient id="stepFace" x1="0%" y1="0%" x2="0%" y2="100%">
      <stop offset="0%"   stop-color="#c1c49bff" stop-opacity="0.6"/>
      <stop offset="100%" stop-color="#141428ff" stop-opacity="0"/>
    </linearGradient>

    <style>
      .word {
        font-family: "Quicksand", "Nunito", "Segoe UI", system-ui, -apple-system, "Helvetica Neue", Arial, sans-serif;
        text-anchor: middle;
      }
      .word.step { font-weight: 450; }
      .word.buy  { font-weight: 600; }
    </style>
  </defs>

  <!-- TOP STEP -->
  <g>
    <polygon points="239,135 620,135 660,105 299,105" fill="url(#stepTread)" />
    <polygon points="239,135 620,135 620,185 239,185" fill="url(#stepFace)" />
    <text class="word step" x="460" y="128" font-size="100" fill="url(#warmTextStep)">STEP</text>
  </g>

  <!-- MIDDLE STEP -->
  <g>
    <polygon points="180,240 561,240 601,210 240,210" fill="url(#stepTread)" />
    <polygon points="180,240 561,240 561,290 180,290" fill="url(#stepFace)" />
    <text class="word buy" x="400" y="233" font-size="110" fill="url(#warmTextBuy)">BUY</text>
  </g>

  <!-- BOTTOM STEP -->
  <g>
    <polygon points="121,355 502,355 542,325 181,325" fill="url(#stepTread)" />
    <polygon points="121,355 502,355 502,405 121,405" fill="url(#stepFace)" />
    <text class="word step" x="340" y="348" font-size="100" fill="url(#warmTextStep)">STEP</text>
  </g>
</svg>
