<?xml version="1.0" encoding="UTF-8"?>
<svg xmlns="http://www.w3.org/2000/svg"
     viewBox="100 50 580 370"
     role="img"
     aria-label="STEP BUY STEP logo with softened tones">

<defs>
<linearGradient id="pageTone">
  <stop offset="0%" stop-color="#A86728"/>
  <stop offset="50%" stop-color="#C47B32"/>
  <stop offset="100%" stop-color="#E39A48"/>
</linearGradient>



<!-- STEP SURFACE GRADIENTS — match page bg (#F4E5C8) and fade away -->
<linearGradient id="stepTread" x1="0%" y1="100%" x2="0%" y2="0%">
  <stop offset="0%"   stop-color="#F4E5C8" stop-opacity="0.65"/>
  <stop offset="50%"  stop-color="#F4E5C8" stop-opacity="0.23"/>
  <stop offset="100%" stop-color="#F4E5C8" stop-opacity="0"/>
</linearGradient>

<linearGradient id="stepFace" x1="0%" y1="0%" x2="0%" y2="100%">
  <stop offset="0%"   stop-color="#F4E5C8" stop-opacity="0.18"/>
  <stop offset="100%" stop-color="#F4E5C8" stop-opacity="0.0"/>
</linearGradient>










<!-- TEXT STYLE -->
<style>
  .word {
    font-family: "Quicksand", "Nunito", "Segoe UI", system-ui, -apple-system, "Helvetica Neue", Arial, sans-serif;
    text-anchor: middle;
    fill: #C47B32; /* Flat copper-amber tone */
  }
  .word.step { font-weight: 500; }
  .word.buy  { font-weight: 600; }
</style>

</defs>


<!-- BOTTOM STEP (moved UP 20px) -->
<g>
  <!-- tread: back edge 355→335, front edge 332→312 -->
  <polygon points="170,335 478,335 510,312 205,312" fill="url(#stepTread)" />
  <!-- face: height 22px (335→357) -->
  <polygon points="170,335 478,335 478,380 170,380" fill="url(#stepFace)" />
  <!-- text: 349→329 -->
  <text class="word step" x="340" y="329" font-size="90">Step</text>
</g>

<!-- MIDDLE STEP (anchor: unchanged) -->
<g>
  <!-- tread: 255(back), 232(front) -->
  <polygon points="230,255 537,255 569,232 264,232" fill="url(#stepTread)" />
  <!-- face: 22px tall (255→277) -->
  <polygon points="230,255 537,255 537,310 230,310" fill="url(#stepFace)" />
  <text class="word buy" x="400" y="249" font-size="90">Buy</text>
</g>

<!-- TOP STEP (moved DOWN 15px) -->
<!-- TOP STEP (corrected slope to match others) -->
<g>
  <!-- tread: 170→147 (23px drop) -->
  <polygon points="290,170 596,170 628,147 323,147" fill="url(#stepTread)" />
  <!-- face: 22px tall (170→192) -->
  <polygon points="290,170 596,170 596,225 290,225" fill="url(#stepFace)" />
  <!-- text baseline adjusted slightly -->
  <text class="word step" x="460" y="163" font-size="90">Step</text>
</g>



</svg>
